<svg width="52" height="38" viewBox="0 0 52 38" fill="none" xmlns="http://www.w3.org/2000/svg">
<path fill-rule="evenodd" clip-rule="evenodd" d="M36.7353 33.6049C36.8707 33.6437 36.93 33.6514 37.0146 33.6887C37.0379 33.6993 37.102 33.7303 37.124 33.7444C37.2684 33.8359 37.1416 33.7465 37.2924 33.8901C36.7861 33.7747 36.9004 33.7768 36.7353 33.6049ZM36.0915 33.2296C36.4271 33.2972 36.2885 33.2585 36.7327 33.5909C36.2161 33.5035 36.4222 33.4239 36.0915 33.2296ZM39.0187 33.8C39.0228 33.8014 39.0751 33.8317 39.2058 33.8387C39.2409 33.8409 39.3688 33.8366 39.4086 33.8331L40.7765 33.5303C41.4053 33.288 41.8394 33.0303 42.2662 32.6732C42.9113 32.1331 43.5105 31.3775 43.8922 30.6824C44.0274 30.4366 43.9502 30.5169 44.1506 30.3394C43.8345 31.5127 42.241 33.1958 40.7164 33.6845C39.8035 33.9775 39.4897 33.8254 38.7753 33.9L39.0187 33.8ZM44.6628 28.7655C44.8719 28.4768 45.2411 28.2486 45.6183 28.1324C45.5716 28.9747 44.0891 31.4761 43.4272 31.9409L43.9329 31.1479C44.3318 30.619 45.175 29.4585 45.0207 28.8092C44.856 28.7634 44.8786 28.7669 44.6628 28.7655ZM43.3154 29.662C42.6963 30.3204 40.0855 30.7648 39.0908 30.7937C38.0191 30.8247 37.243 30.6782 36.285 30.4401C35.9284 30.3514 35.754 30.3289 35.4852 30.119C36.6301 30.2472 36.9552 30.6211 39.1078 30.6486C41.0925 30.6747 41.9741 30.0465 43.3154 29.662ZM39.0187 33.8L38.8011 33.7493C37.9341 33.6373 38.3023 33.7507 37.3222 33.4127C35.7901 32.8838 34.5265 31.0655 33.7792 29.6408C34.1686 29.8148 34.3765 30.0542 34.7886 30.2409C36.8744 31.1873 39.1267 31.4796 41.4466 30.874C43.255 30.4021 43.0425 30.212 44.2105 29.6535C44.0198 30.3169 43.0813 31.6676 42.4324 32.2542C41.1439 33.419 40.8941 33.3923 39.0187 33.8ZM33.991 29.5613C33.8141 29.4296 34.0325 29.6359 33.8225 29.3732C34.1128 29.4852 34.4664 29.6331 34.6716 29.8247L33.991 29.5613ZM33.3736 29.238C33.2059 29.2028 33.3847 29.2092 33.1369 29.2218C33.2991 29.9556 33.5808 30.1134 33.7789 30.662C33.4188 30.4366 32.9572 29.7493 32.7172 29.3324C32.5575 29.0556 32.5067 29.0444 32.5663 28.7563C32.9652 28.7162 33.3994 29.0824 33.715 29.3183L33.4307 29.2549C33.4124 29.2507 33.3908 29.2423 33.3736 29.238ZM49.0603 20.7604C49.1095 20.4535 49.0396 20.2579 49.0474 19.9335C49.2277 20.3668 49.3334 20.8187 49.2669 21.189C48.9608 21.2254 48.7871 21.1223 48.5707 21.0056L48.0424 20.717C48.0246 20.6866 48.0017 20.687 47.9813 20.6722C48.4971 20.6741 48.5475 20.9112 49.0603 20.7604ZM41.1161 23.1361C41.2247 23.1621 41.0991 23.2118 41.2327 23.1338C41.3385 23.0725 41.9705 21.9977 43.0875 21.5801L42.7244 21.852C41.3781 22.7878 41.5218 23.4341 41.0711 23.8993C40.8656 23.4731 40.869 22.8013 41.0857 22.3842C41.1025 22.6362 41.0067 22.9987 41.1161 23.1361ZM41.5097 22.4859C41.5682 21.7409 41.9906 20.6217 42.3593 19.924C42.7002 19.279 43.218 18.432 44.1179 17.9268C45.0722 17.3912 46.4184 17.3528 47.066 17.8042C48.0002 18.455 48.1627 19.2768 48.4094 20.5551C47.7255 20.4808 47.6041 20.3543 46.6135 20.3608C45.9025 20.3654 45.3003 20.5053 44.5993 20.7044C43.2041 21.1007 42.4602 21.8371 41.5097 22.4859ZM44.1411 17.5183C44.6927 17.2293 44.8991 16.9737 45.6968 16.8649C46.3035 16.7822 46.8178 16.8913 47.2103 17.1172C48.4518 17.8318 48.4586 18.9722 48.5915 19.881C48.2239 18.6987 48.0759 17.7537 47.1255 17.2618C45.9369 16.6467 44.8949 17.2573 44.1411 17.5183ZM41.5614 17.1693C41.523 17.3862 41.7219 17.0997 41.4389 17.4317C41.4364 17.4347 41.2786 17.5742 41.2504 17.5992C41.3259 17.374 41.3385 17.3378 41.5614 17.1693ZM41.5614 17.1693C41.5922 16.9122 41.9129 16.5885 42.0928 16.3783C44.1455 13.9809 47.4543 14.2605 48.6708 15.6799C48.1956 15.6014 48.2612 15.4644 47.7691 15.2922C45.8915 14.6353 43.5579 15.1509 42.1987 16.5659C41.9837 16.7897 41.7995 17.0488 41.5614 17.1693ZM32.708 17.673C33.5078 18.0798 33.7603 18.1394 34.458 18.9424C34.9302 19.486 35.2944 20.2751 35.5824 21.0025C35.8665 21.2004 35.8524 21.4337 35.9714 21.8512C36.1128 21.6083 35.9495 21.542 36.1142 21.7506C35.9235 20.9335 35.9605 21.5825 36.2341 21.241L36.2966 21.6787C36.3707 22.2539 36.6044 22.8833 36.5726 23.4797C36.5503 23.8937 36.4711 23.831 36.3822 23.888C36.109 23.6074 35.9994 23.1482 35.7894 22.8554C35.5352 22.5016 35.2608 22.3695 35.1113 22.098C34.9809 22.0711 35.0816 22.1185 34.9362 22.0428C34.9159 22.0321 34.8583 21.9887 34.84 21.9759C34.8311 21.9699 34.7177 21.8756 34.669 21.8413C34.2321 21.8767 34.3147 21.6689 33.4307 21.3314L32.2668 20.9347C32.0767 20.8838 32.0131 20.8524 31.8109 20.8128C31.1477 20.683 31.0569 20.8512 30.7561 20.6446C30.3023 20.7089 29.8361 20.6994 29.3738 20.8657C28.9714 21.0104 28.679 21.307 28.2902 21.2991C28.2183 21.217 28.2802 21.4243 28.1785 21.1377C28.138 21.024 28.1538 21.0454 28.1537 20.9416C28.1536 20.6377 28.3474 20.2944 28.4142 20.0373L28.4354 20.1167C28.5984 19.9667 28.615 19.9117 28.6877 19.9439C28.5614 19.5012 28.6278 19.8722 28.8025 19.7087C28.7452 18.9159 29.2993 17.8049 29.8871 17.3963C30.8065 16.7572 31.9386 16.8325 32.6311 17.2577C32.8635 17.2375 32.6975 17.2302 32.9007 17.2756C33.0461 17.3081 32.8655 17.2757 33.0633 17.3392C32.9152 17.6348 33.211 17.4571 32.708 17.673ZM28.8272 15.6605C29.3447 15.2424 30.1963 14.8515 30.8713 14.7471C31.7937 14.6049 32.5319 14.6917 33.2263 14.9379C34.4423 15.3691 35.89 16.778 36.3343 17.863C35.7336 16.8758 34.3546 15.7542 33.1759 15.3595C31.1374 14.677 30.0907 15.2206 28.6121 15.9106L28.8272 15.6605ZM29.5979 9.22409C31.534 8.92543 32.7865 9.81635 35.214 10.373C36.907 10.7611 39.5449 10.9179 41.5836 10.529C41.1003 10.587 40.5133 10.7618 39.9181 10.8291C37.545 11.0973 34.6056 10.5977 32.4933 9.77804C31.7465 9.48839 30.6016 9.12057 29.5979 9.22409ZM31.6486 33.5958L31.6869 33.7493L31.7669 33.731C32.0423 33.9176 31.9309 33.9768 32.1207 34.1331C32.1954 34.4894 32.1558 34.1092 32.0186 34.3141C32.335 34.4394 32.5399 34.9761 32.9042 35.0261L33.7113 35.6296C33.953 35.812 34.2785 36.0373 34.5205 36.193C34.6841 36.2986 34.8254 36.338 34.9818 36.4218C38.2995 38.2049 41.528 37.831 44.4775 35.293C47.6089 32.5979 48.9805 29.2697 49.7347 25.2923L50.4098 21.3726C50.7831 18.5685 51.2883 16.3235 51.4847 13.4406C51.748 9.57818 50.0753 8.08466 45.9035 9.10945C44.2077 9.52593 42.6021 10.2352 40.895 10.4255C39.5241 10.5783 37.6148 10.5705 36.4563 10.3341C34.7619 9.98804 34.0266 9.60431 32.5922 9.27515C30.7381 8.84952 27.9374 8.21086 26.8261 10.4088C26.5886 10.8781 26.422 11.7058 26.5428 12.3756C26.7523 11.2289 26.8422 9.53677 28.6358 9.41015C28.0688 9.63318 27.6602 9.77367 27.3827 10.2009C26.563 11.4631 26.6266 12.9167 26.7519 14.4658C26.9333 16.7029 27.1592 18.6725 27.5048 20.9687C27.8287 23.1201 28.1477 25.6099 28.8025 27.7366C29.1553 28.8831 29.5639 29.9197 30.0787 30.9486C30.6838 32.1578 31.44 33.174 31.6486 33.5958Z" fill="#C22008"/>
<path fill-rule="evenodd" clip-rule="evenodd" d="M9.2971 20.4603C9.14372 21.434 8.82975 21.1067 9.07085 22.8923C8.39659 22.7829 8.14813 21.5338 7.99335 20.9094C8.22122 21.2968 8.3124 22.0717 8.71718 22.2891C8.86063 22.024 8.8974 20.8527 9.2971 20.4603ZM9.2971 20.4603C9.42953 19.9317 9.6846 19.5918 10.0657 19.1692C10.0153 19.3063 10.073 19.2256 9.94894 19.404C9.52115 20.019 9.47026 20.3167 9.2971 20.4603ZM8.59203 21.4663C7.88505 19.1981 7.68924 17.1567 8.87387 15.8031C10.352 14.1143 12.5278 14.7667 13.5789 16.561C12.0788 16.9061 11.0473 17.7173 10.2509 18.6005C10.1012 18.7663 9.81159 19.0971 9.70615 19.272C9.5224 19.5763 9.45093 19.7537 9.28725 20.002C8.89107 20.6032 8.81085 21.2444 8.59203 21.4663ZM11.781 17.5467C11.9561 17.3311 12.1624 17.2563 12.4579 17.1293C12.6873 17.031 12.9798 16.9143 13.2087 16.8391C14.1403 16.5341 14.4657 16.7981 14.0434 15.913L14.3128 16.0974C15.3968 17.0628 13.7427 16.7645 13.1566 16.9453C12.6133 17.113 12.2603 17.3287 11.781 17.5467ZM17.8907 14.3982C18.2576 14.3029 18.8711 13.6075 19.3211 13.3397C19.2442 13.4391 19.3725 13.3225 19.1884 13.4905L19.0859 13.5694C18.2025 14.2727 18.4234 14.7105 17.8758 14.8517C17.6148 14.5874 17.544 14.2827 17.4709 13.8978L17.6703 14.1796C17.7886 14.3501 17.7118 14.2751 17.8907 14.3982ZM18.2807 13.8912C17.8329 12.7035 17.5197 11.8569 18.032 10.881C18.9128 9.20372 21.5523 9.27005 23.2866 10.5174C23.8111 10.8946 24.9514 11.7059 25.2672 12.2591C23.5634 11.7735 21.2972 12.0294 19.6531 12.9116C19.0226 13.2498 18.7764 13.5813 18.2807 13.8912ZM8.64769 15.2049C8.64078 15.3483 8.70806 15.3043 8.51997 15.5522C8.42946 15.6715 8.37843 15.7174 8.27982 15.8079L8.64769 15.2049ZM8.64769 15.2049L8.80784 14.9384C8.90982 14.826 8.92166 14.8156 9.01527 14.7271C10.3543 13.4593 12.0668 13.9317 13.0603 15.2489C12.6173 15.0851 12.8058 14.9581 12.0822 14.5629C11.3183 14.1457 10.5822 13.8802 9.53438 14.4989C9.17291 14.7121 8.9074 15.0815 8.64769 15.2049ZM17.5486 13.3764C17.4979 13.1896 17.3139 12.9762 17.2092 12.7161C16.1129 9.99534 18.7454 8.84506 19.5707 9.17759C18.342 9.39083 17.564 9.86428 17.2678 10.6546C16.8313 11.8198 17.2886 12.2374 17.5486 13.3764ZM6.79703 19.8287C5.8674 18.5726 5.60365 16.3184 5.78468 14.9434C5.90115 14.058 6.77262 11.8117 7.93607 11.5296C8.07144 12.1213 7.38637 12.7364 7.04387 13.2648C6.75277 13.7136 6.43299 14.4452 6.29916 15.1025C5.93174 16.9068 6.2846 17.9232 6.79703 19.8287ZM22.882 8.2783C21.9309 7.54851 20.1811 6.85569 18.9149 6.84083C18.4475 6.83527 16.9176 7.13717 16.5623 6.74428C17.2753 5.67632 20.4992 6.48773 21.1503 6.80505C22.3303 7.37984 23.7994 8.42428 24.4897 9.649C24.251 9.52132 23.9405 9.14252 23.6969 8.93837C23.3963 8.68654 23.1663 8.49668 22.882 8.2783ZM1.99306 9.77301C3.76777 8.61315 5.30894 8.7809 7.40637 8.15076C9.96063 7.38323 10.2154 6.9666 12.1707 5.89195L11.2058 6.63541C9.17372 7.87006 6.96409 8.58689 4.57269 8.94118C3.28357 9.13224 3.02284 9.36456 1.99306 9.77301ZM28.2728 26.2688C27.9046 25.7956 27.6056 24.0322 27.5735 23.5175L27.4139 23.5565C27.1139 23.5244 27.2007 23.5244 26.9373 23.5063C25.6495 23.4184 23.9683 23.7794 22.768 24.3096C21.4682 24.8836 20.5103 25.5625 19.5886 26.5723L18.5008 27.9758C18.1689 28.5195 18.2567 28.2751 18.3182 28.5315C18.2939 28.8103 18.1147 29.0533 17.9861 29.2991C17.8075 29.6399 17.9019 29.7948 17.4872 29.9477C17.1692 29.2047 17.3018 28.2463 17.4833 27.6632C17.5483 28.1772 17.4745 28.7772 17.7596 29.2582C17.9586 29.1505 17.98 29.1237 18.0777 28.9589C18.0846 28.9477 18.151 28.8125 18.151 28.8125C18.204 28.6625 18.1653 28.7927 18.1675 28.6589L18.0224 28.447C18.4265 28.3385 18.054 28.4688 18.1311 28.2667C17.9835 28.1801 18.0448 28.2927 17.978 28.0758C17.9695 28.0484 17.9687 27.9089 17.9674 27.8822C17.9566 27.6864 17.9534 27.5963 17.9337 27.4103C17.7885 27.5441 17.7111 27.4343 17.8753 27.5061C17.5375 26.647 18.165 25.8216 17.9367 25.242C17.8521 24.9061 18.0867 24.2737 18.2043 23.9695C18.2675 23.8061 18.4099 23.5445 18.4812 23.4193C18.6137 23.1867 18.6518 23.0675 18.9142 22.9432C19.2168 22.8823 19.2519 22.7927 19.3642 22.556C19.708 22.564 19.219 22.7005 19.4914 22.5485C19.5057 22.5406 19.6427 22.4402 19.658 22.4317L19.9034 22.3213C20.064 22.2508 20.0923 22.2384 20.1668 22.201C22.5496 21.0029 23.3348 21.8565 23.9326 21.6325C24.2531 21.5767 24.2161 21.656 24.5764 21.6853L24.507 21.5617C24.7973 21.4883 24.6567 21.4898 24.9613 21.6062C25.1226 21.6679 25.1624 21.6785 25.2943 21.7256C25.4642 21.7861 25.4542 21.8015 25.6093 21.8625C26.3758 22.1646 26.8907 22.5353 27.2134 22.652C27.2464 22.5598 27.1369 22.5913 27.3024 22.4467C27.1858 22.1875 27.1328 22.4327 27.3131 22.1641C26.9222 21.4008 26.1211 15.1593 26.0914 13.5598C26.0911 13.5412 26.1028 13.3282 26.1036 13.3237L26.1717 13.0688C25.581 12.9889 26.0361 12.8351 24.9859 12.4898C24.3273 12.2731 24.0831 12.3645 23.6322 12.2151C24.8825 12.1327 25.5412 12.6749 26.0272 12.6441L25.6197 12.0134C25.7506 12.0767 25.6811 12.0076 25.8521 12.1646C25.8621 12.1739 25.9653 12.3076 25.9973 12.3429C26.1431 12.2589 26.1645 12.2992 26.2034 11.8661C26.2226 11.6527 26.1895 11.6296 26.2484 11.4001L26.588 10.4916C26.243 10.4484 26.2306 10.1057 25.9506 9.42886C25.4483 8.214 25.0917 7.13026 24.4436 5.78625C24.2506 5.38625 24.0756 5.00991 23.9105 4.66069C23.227 3.21308 21.9028 0.725054 20.3801 0.141673C18.6306 -0.528397 16.3775 1.33801 15.1786 2.40386C14.965 2.59379 14.9965 2.62625 14.8348 2.79238C14.6892 2.94217 14.569 3.03717 14.4289 3.21118C13.0143 4.96766 11.0687 6.24386 8.85343 7.21069C8.08754 7.54499 6.93872 7.79872 6.00225 8.02808C5.62777 8.11977 5.65085 8.05731 5.34784 8.11323C3.92652 8.37548 0.978869 9.44745 0.292913 10.6688C-0.667675 12.3794 0.95409 14.5711 1.99505 16.0646C3.57306 18.3287 4.69732 19.3991 6.26196 21.3695L8.08078 23.4834C9.54909 25.0603 11.7647 27.5413 13.68 28.5787C14.3196 28.9251 15.3936 29.5991 16.0138 29.8329C19.6087 31.1836 23.851 31.5385 26.6648 28.4639C27.3992 27.661 27.9254 26.5223 28.2728 26.2688Z" fill="#2C939D"/>
</svg>
